HIERARCHY
ROOT Hips
{
    OFFSET   0.000000   0.000000   0.000000
    CHANNELS 6 Xposition Yposition Zposition Zrotation Xrotation Yrotation
    JOINT Chest
    {
        OFFSET   0.000000   8.007230   0.000000
        CHANNELS 3 Zrotation Xrotation Yrotation
        JOINT Chest2
        {
            OFFSET   0.000000  22.077100   0.000000
            CHANNELS 3 Zrotation Xrotation Yrotation
            JOINT Neck
            {
                OFFSET   0.000000  23.255100   0.000000
                CHANNELS 3 Zrotation Xrotation Yrotation
                JOINT Head
                {
                    OFFSET   0.000000  14.370100   1.956600
                    CHANNELS 3 Zrotation Xrotation Yrotation
                    End Site
                    {
                        OFFSET   0.000000  19.566000   0.000000
                    }
                }
            }
            JOINT LeftCollar
            {
                OFFSET   3.911900  19.017000  -0.467063
                CHANNELS 3 Zrotation Xrotation Yrotation
                JOINT LeftShoulder
                {
                    OFFSET  10.383700   0.000000   0.000000
                    CHANNELS 3 Zrotation Xrotation Yrotation
                    JOINT LeftElbow
                    {
                        OFFSET  26.662100   0.001193   0.000980
                        CHANNELS 3 Zrotation Xrotation Yrotation
                        JOINT LeftWrist
                        {
                            OFFSET  28.869000  -0.000059  -0.000082
                            CHANNELS 3 Zrotation Xrotation Yrotation
                            JOINT LeftFinger0
                            {
                                OFFSET   2.044650  -2.323450   3.252850
                                CHANNELS 3 Zrotation Xrotation Yrotation
                                JOINT LeftFinger01
                                {
                                    OFFSET   3.088130   0.000000   0.000000
                                    CHANNELS 3 Zrotation Xrotation Yrotation
                                    JOINT LeftFinger02
                                    {
                                        OFFSET   2.639460   0.000000   0.000000
                                        CHANNELS 3 Zrotation Xrotation Yrotation
                                        End Site
                                        {
                                            OFFSET   2.582190   0.000000   0.000000
                                        }
                                    }
                                }
                            }
                            JOINT LeftFinger1
                            {
                                OFFSET   8.364480   0.000000   3.252850
                                CHANNELS 3 Zrotation Xrotation Yrotation
                                JOINT LeftFinger11
                                {
                                    OFFSET   4.646930   0.000000   0.000000
                                    CHANNELS 3 Zrotation Xrotation Yrotation
                                    JOINT LeftFinger12
                                    {
                                        OFFSET   2.323470   0.000000   0.000000
                                        CHANNELS 3 Zrotation Xrotation Yrotation
                                        End Site
                                        {
                                            OFFSET   2.273050   0.000000   0.000000
                                        }
                                    }
                                }
                            }
                            JOINT LeftFinger2
                            {
                                OFFSET   8.364490   0.000016   1.078090
                                CHANNELS 3 Zrotation Xrotation Yrotation
                                JOINT LeftFinger21
                                {
                                    OFFSET   5.111610   0.000000   0.000000
                                    CHANNELS 3 Zrotation Xrotation Yrotation
                                    JOINT LeftFinger22
                                    {
                                        OFFSET   2.788150   0.000016   0.000000
                                        CHANNELS 3 Zrotation Xrotation Yrotation
                                        End Site
                                        {
                                            OFFSET   2.727660   0.000000   0.000000
                                        }
                                    }
                                }
                            }
                            JOINT LeftFinger3
                            {
                                OFFSET   7.899780   0.000015  -1.078090
                                CHANNELS 3 Zrotation Xrotation Yrotation
                                JOINT LeftFinger31
                                {
                                    OFFSET   4.646930   0.000000   0.000000
                                    CHANNELS 3 Zrotation Xrotation Yrotation
                                    JOINT LeftFinger32
                                    {
                                        OFFSET   2.323470   0.000000   0.000000
                                        CHANNELS 3 Zrotation Xrotation Yrotation
                                        End Site
                                        {
                                            OFFSET   2.273050   0.000000   0.000000
                                        }
                                    }
                                }
                            }
                            JOINT LeftFinger4
                            {
                                OFFSET   7.435090   0.000000  -3.252850
                                CHANNELS 3 Zrotation Xrotation Yrotation
                                JOINT LeftFinger41
                                {
                                    OFFSET   3.717550   0.000000   0.000000
                                    CHANNELS 3 Zrotation Xrotation Yrotation
                                    JOINT LeftFinger42
                                    {
                                        OFFSET   1.858770   0.000000   0.000000
                                        CHANNELS 3 Zrotation Xrotation Yrotation
                                        End Site
                                        {
                                            OFFSET   1.818440   0.000000   0.000000
                                        }
                                    }
                                }
                            }
                        }
                    }
                }
            }
            JOINT RightCollar
            {
                OFFSET  -3.911910  19.017000  -0.467062
                CHANNELS 3 Zrotation Xrotation Yrotation
                JOINT RightShoulder
                {
                    OFFSET -10.383700   0.000014   0.000000
                    CHANNELS 3 Zrotation Xrotation Yrotation
                    JOINT RightElbow
                    {
                        OFFSET -26.662100   0.001225   0.001091
                        CHANNELS 3 Zrotation Xrotation Yrotation
                        JOINT RightWrist
                        {
                            OFFSET -28.869000  -0.000020  -0.000085
                            CHANNELS 3 Zrotation Xrotation Yrotation
                            JOINT RightFinger0
                            {
                                OFFSET  -2.044650  -2.323490   3.252850
                                CHANNELS 3 Zrotation Xrotation Yrotation
                                JOINT RightFinger01
                                {
                                    OFFSET  -3.088130   0.000000   0.000000
                                    CHANNELS 3 Zrotation Xrotation Yrotation
                                    JOINT RightFinger02
                                    {
                                        OFFSET  -2.639460   0.000000   0.000000
                                        CHANNELS 3 Zrotation Xrotation Yrotation
                                        End Site
                                        {
                                            OFFSET  -2.582190   0.000000   0.000000
                                        }
                                    }
                                }
                            }
                            JOINT RightFinger1
                            {
                                OFFSET  -8.364480   0.000000   3.252850
                                CHANNELS 3 Zrotation Xrotation Yrotation
                                JOINT RightFinger11
                                {
                                    OFFSET  -4.646930   0.000000   0.000000
                                    CHANNELS 3 Zrotation Xrotation Yrotation
                                    JOINT RightFinger12
                                    {
                                        OFFSET  -2.323470   0.000000   0.000000
                                        CHANNELS 3 Zrotation Xrotation Yrotation
                                        End Site
                                        {
                                            OFFSET  -2.273050   0.000000   0.000000
                                        }
                                    }
                                }
                            }
                            JOINT RightFinger2
                            {
                                OFFSET  -8.364480   0.000000   1.078090
                                CHANNELS 3 Zrotation Xrotation Yrotation
                                JOINT RightFinger21
                                {
                                    OFFSET  -5.111620   0.000000   0.000000
                                    CHANNELS 3 Zrotation Xrotation Yrotation
                                    JOINT RightFinger22
                                    {
                                        OFFSET  -2.788160   0.000000   0.000000
                                        CHANNELS 3 Zrotation Xrotation Yrotation
                                        End Site
                                        {
                                            OFFSET  -2.727660   0.000000   0.000000
                                        }
                                    }
                                }
                            }
                            JOINT RightFinger3
                            {
                                OFFSET  -7.899780   0.000000  -1.078090
                                CHANNELS 3 Zrotation Xrotation Yrotation
                                JOINT RightFinger31
                                {
                                    OFFSET  -4.646930   0.000000   0.000000
                                    CHANNELS 3 Zrotation Xrotation Yrotation
                                    JOINT RightFinger32
                                    {
                                        OFFSET  -2.323470   0.000000   0.000000
                                        CHANNELS 3 Zrotation Xrotation Yrotation
                                        End Site
                                        {
                                            OFFSET  -2.273050   0.000000   0.000000
                                        }
                                    }
                                }
                            }
                            JOINT RightFinger4
                            {
                                OFFSET  -7.435090   0.000000  -3.252850
                                CHANNELS 3 Zrotation Xrotation Yrotation
                                JOINT RightFinger41
                                {
                                    OFFSET  -3.717550   0.000000   0.000000
                                    CHANNELS 3 Zrotation Xrotation Yrotation
                                    JOINT RightFinger42
                                    {
                                        OFFSET  -1.858760   0.000000   0.000000
                                        CHANNELS 3 Zrotation Xrotation Yrotation
                                        End Site
                                        {
                                            OFFSET  -1.818440   0.000000   0.000000
                                        }
                                    }
                                }
                            }
                        }
                    }
                }
            }
        }
    }
    JOINT LeftHip
    {
        OFFSET   9.783030   0.000000   0.000000
        CHANNELS 3 Zrotation Xrotation Yrotation
        JOINT LeftKnee
        {
            OFFSET   0.000063 -41.789100   0.000608
            CHANNELS 3 Zrotation Xrotation Yrotation
            JOINT LeftAnkle
            {
                OFFSET   0.000048 -41.133200  -0.000184
                CHANNELS 3 Zrotation Xrotation Yrotation
                JOINT LeftToe
                {
                    OFFSET   0.000000  -6.358960  14.674500
                    CHANNELS 3 Zrotation Xrotation Yrotation
                    End Site
                    {
                        OFFSET   0.000000   0.000000   3.913200
                    }
                }
            }
        }
    }
    JOINT RightHip
    {
        OFFSET  -9.783030   0.000000   0.000000
        CHANNELS 3 Zrotation Xrotation Yrotation
        JOINT RightKnee
        {
            OFFSET   0.000071 -41.789100   0.001239
            CHANNELS 3 Zrotation Xrotation Yrotation
            JOINT RightAnkle
            {
                OFFSET   0.000037 -41.133200  -0.000166
                CHANNELS 3 Zrotation Xrotation Yrotation
                JOINT RightToe
                {
                    OFFSET   0.000000  -6.358960  14.674500
                    CHANNELS 3 Zrotation Xrotation Yrotation
                    End Site
                    {
                        OFFSET   0.000000   0.000000   3.913200
                    }
                }
            }
        }
    }
}
MOTION
Frames: 5
Frame Time:   0.016667
  6.339410  90.343300  -1.053340  -3.932640 -22.739600   2.240450  -1.716270  13.254400   6.804280  -5.301300  26.187100  14.627000   2.749300  -2.041760   0.098245   4.533340  -4.111040  -5.590800  -8.567330 -10.385800   1.841290 -63.923200  24.808800  -7.585840  -0.648622  -4.940690 -17.351300  17.456000  -9.000210   7.742460  36.316800  27.563100 -51.563900 -33.918900   0.000371   0.003144 -11.959400   0.000890  -0.003428 -34.145800   6.364460  -9.283450 -28.360800   0.008456  -0.001335 -19.852500   0.000752  -0.009892 -28.693300  -2.178440   3.972690 -40.863700   0.000000  -0.002670 -27.215200   0.004605  -0.004248 -28.710400  -2.179850   3.971810 -43.024500   0.001250  -0.002655 -28.654300   0.007010  -0.011148 -33.030000  -2.472960   3.796480 -49.667900   0.001435   0.000258 -33.078800   0.001784  -0.008963   7.109710  -6.261700  11.182000  16.201600  17.606100  68.659400 -24.745100   5.500510  32.458000  12.275500 -14.243700   6.728890 -43.206700  33.598000  57.427000  27.142100   0.004756  -0.002439   8.571040   0.000841   0.002975  27.381900   9.811880  18.213100  23.689700  -0.012122   0.010941  16.582800   0.000073   0.007413  27.944300   5.445330  10.139500  35.361000  -0.006450   0.009271  23.550400   0.002124   0.005518  27.554800   4.712290   8.943310  31.486900  -0.002359   0.012492  20.970300  -0.005749   0.006463  31.626200   0.954221   1.549580  47.457200  -0.001794   0.007100  31.606500  -0.000402  -0.002966   1.696170  25.140600   4.652400   0.525412  -0.002530   2.562230   0.178401  -3.925100   0.645586   0.000000   0.000000   0.000000   1.496080  15.372900  -0.786375  -2.951910  18.859300 -13.249400   4.144280  -5.148560   0.620052  -0.000000   0.000000  -0.000000
  6.303160  90.334400  -1.036480  -4.031580 -22.501400   1.886690  -1.670020  13.151900   6.716410  -5.167370  25.994500  14.418900   2.719390  -2.038880   0.096730   4.482780  -4.105640  -5.354070  -8.567040 -10.337500   1.845940 -63.874100  24.682000  -7.591630  -0.526507  -4.733600 -17.865600  17.554900  -9.243840   7.750750  36.474300  27.760600 -51.467800 -33.813800   0.000386   0.003020 -11.906900   0.000864  -0.003414 -34.167900   6.391240  -9.313970 -28.382100   0.008457  -0.001312 -19.867400   0.000739  -0.009887 -28.691000  -2.164630   3.947940 -40.751600   0.000000  -0.002625 -27.140600   0.004549  -0.004258 -28.726300  -2.167110   3.946810 -43.171000   0.001207  -0.002611 -28.751900   0.007018  -0.011120 -33.042900  -2.457220   3.772750 -49.685600   0.001385   0.000253 -33.090600   0.001735  -0.008984   7.439600  -6.198410  11.353400  16.326600  19.820900  67.583800 -23.915900   5.435800  32.442800  14.018700 -13.173100   6.204380 -43.084600  33.154200  57.185400  26.806000   0.003520  -0.001776   8.403000   0.000841   0.002509  27.230500   9.827220  18.381200  23.588100  -0.012309   0.011127  16.511700   0.000950   0.007419  27.920400   5.457050  10.171400  35.131800  -0.006692   0.009255  23.397700   0.002559   0.005495  27.512000   4.729820   8.992300  31.219600  -0.001950   0.012484  20.792300  -0.005872   0.006874  31.502900   0.978164   1.596590  47.272500  -0.001131   0.010245  31.483500  -0.000594  -0.002399   1.712960  24.962900   4.577190   0.429162   0.001822   2.849430   0.185929  -3.993050   0.731666  -0.000000   0.000000   0.000000   1.488150  15.405600  -0.792923  -2.937060  18.260800 -13.148900   4.082730  -5.339220   0.754591  -0.000000   0.000000   0.000000
  6.265440  90.323400  -1.023860  -4.118200 -22.247000   1.532600  -1.629460  13.049100   6.626230  -5.040720  25.800800  14.208000   2.679870  -2.038470   0.095410   4.418400  -4.106230  -5.110490  -8.567920 -10.297400   1.847360 -63.821100  24.571700  -7.599770  -0.404899  -4.553590 -18.350600  17.647400  -9.471720   7.764070  36.609100  27.952300 -51.383000 -33.720000   0.000395   0.002896 -11.860000   0.000839  -0.003399 -34.191800   6.412900  -9.336470 -28.404000   0.008458  -0.001290 -19.882800   0.000726  -0.009883 -28.688500  -2.155500   3.931860 -40.647400   0.000000  -0.002580 -27.071200   0.004493  -0.004267 -28.768600  -2.161310   3.928490 -43.287500   0.001165  -0.002569 -28.829500   0.007026  -0.011092 -33.056000  -2.448970   3.756160 -49.704500   0.001335   0.000247 -33.103200   0.001686  -0.009006   7.786270  -6.157040  11.536800  16.460300  22.124100  66.460400 -22.991300   5.431150  32.363700  14.516900 -12.273700   5.588350 -43.203200  33.049700  57.209200  26.538500   0.002957  -0.001473   8.269250   0.000841   0.002297  26.859800   9.836580  18.652500  23.299500  -0.012471   0.011153  16.309700   0.001796   0.007420  27.860700   5.481790  10.242700  34.629000  -0.006953   0.009143  23.062900   0.002853   0.005340  27.398000   4.768090   9.108800  30.603500  -0.001574   0.012427  20.382000  -0.006003   0.006933  31.165300   1.040200   1.724200  46.768200  -0.000507   0.011619  31.147700  -0.000890  -0.001850   1.713890  24.757600   4.505810   0.336310   0.020806   3.113320   0.194943  -4.067390   0.841966  -0.000000   0.000000  -0.000000   1.468990  15.445600  -0.805138  -2.914770  17.619600 -13.030600   4.022590  -5.531630   0.870697  -0.000000   0.000000   0.000000
  6.220040  90.308000  -1.015870  -4.197100 -21.983700   1.175270  -1.591090  12.948100   6.536610  -4.921860  25.609900  13.999500   2.629090  -2.051590   0.094312   4.335600  -4.133740  -4.868010  -8.579500 -10.264900   1.839990 -63.765600  24.482600  -7.614360  -0.285106  -4.388930 -18.790900  17.740700  -9.694590   7.783270  36.718500  28.122900 -51.346200 -33.652100   0.000404   0.002765 -11.826100   0.000826  -0.003373 -34.245300   6.438160  -9.350010 -28.450100   0.008464  -0.001265 -19.915100   0.000713  -0.009880 -28.687300  -2.152290   3.926420 -40.596100   0.000000  -0.002536 -27.037000   0.004437  -0.004276 -28.847000  -2.162610   3.918850 -43.404400   0.001124  -0.002529 -28.907300   0.007035  -0.011068 -33.098100  -2.449180   3.748250 -49.767500   0.001284   0.000244 -33.145200   0.001640  -0.009032   8.163990  -6.144420  11.741700  16.633000  24.512500  65.259300 -22.045100   5.516130  32.127800  14.294700 -11.474600   4.992580 -43.681500  33.486500  56.887400  26.254800   0.002959  -0.001473   8.127430   0.000843   0.002297  26.197200   9.660030  18.822900  22.745800  -0.012589   0.009104  15.922100   0.002572   0.006067  27.764600   5.515170  10.346000  33.924800  -0.007202   0.008894  22.593900   0.003041   0.005127  27.201800   4.821810   9.289180  29.681800  -0.001199   0.012171  19.768100  -0.006087   0.006849  30.546700   1.148620   1.956390  45.846500   0.000078   0.009158  30.533800  -0.001118  -0.001325   1.707460  24.524800   4.445780   0.251174   0.074978   3.343900   0.206104  -4.156600   0.982235   0.000000   0.000000  -0.000000   1.442820  15.499700  -0.821530  -2.886920  16.938600 -12.898600   3.961410  -5.722000   0.972425   0.000000   0.000000   0.000000
  6.171090  90.291800  -1.010670  -4.270410 -21.716800   0.814505  -1.553700  12.850500   6.444710  -4.805640  25.425400  13.787300   2.568760  -2.080150   0.093348   4.236480  -4.192160  -4.619040  -8.599350 -10.236200   1.832650 -63.711200  24.418700  -7.635670  -0.172964  -4.251440 -19.185400  17.822300  -9.893550   7.804580  36.824100  28.278300 -51.319700 -33.599200   0.000408   0.002635 -11.799600   0.000815  -0.003346 -34.301100   6.452420  -9.354650 -28.496800   0.008469  -0.001241 -19.947800   0.000701  -0.009879 -28.686600  -2.151830   3.925640 -40.558100   0.000000  -0.002494 -27.011700   0.004382  -0.004286 -28.930800  -2.168690   3.916180 -43.507200   0.001084  -0.002489 -28.975800   0.007045  -0.011045 -33.142000  -2.450550   3.746580 -49.833000   0.001233   0.000239 -33.188800   0.001594  -0.009059   8.556710  -6.138410  11.959000  16.937100  26.934700  63.959900 -21.068200   5.695810  31.746400  13.941700 -10.826700   4.389730 -44.207100  34.051800  56.695300  26.068500   0.002962  -0.001473   8.034270   0.000844   0.002297  25.477800   9.450530  19.019400  22.139800  -0.012673   0.003847  15.497800   0.003253   0.002600  27.658300   5.549450  10.455300  33.172900  -0.007340   0.007532  22.093100   0.003106   0.004172  26.984200   4.878030   9.483400  28.696900  -0.000819   0.010576  19.112100  -0.006125   0.006263  29.910500   1.258850   2.194320  44.900300   0.000651   0.004654  29.903600  -0.001241  -0.000810   1.691280  24.296500   4.391590   0.175842   0.114497   3.554210   0.217373  -4.234340   1.145190  -0.000000   0.000000   0.000000   1.410260  15.574600  -0.839927  -2.851510  16.211900 -12.749700   3.895030  -5.887000   1.056850  -0.000000   0.000000   0.000000
